<svg xmlns="http://www.w3.org/2000/svg" width="38" height="38" viewBox="0 0 38 38">
    <g fill="none" fill-rule="evenodd">
        <g fill="#00A0DF" fill-rule="nonzero">
            <g>
                <g>
                    <g>
                        <path d="M34.964 14C36.641 14 38 15.414 38 17.158v17.684C38 36.586 36.64 38 34.964 38H24.036C22.359 38 21 36.586 21 34.842V17.158C21 15.414 22.36 14 24.036 14zm1.822 8.842H22.214v12c0 1.047.816 1.895 1.822 1.895h10.928c1.006 0 1.822-.848 1.822-1.895v-12zM35.375 24c.345 0 .625.298.625.667v10.666c0 .369-.28.667-.625.667h-3.75c-.345 0-.625-.298-.625-.667V24.667c0-.369.28-.667.625-.667zm-.625 1.333h-2.5v9.334h2.5v-9.334zM27.125 0C29.265 0 31 1.691 31 3.778v3.148c0 .348-.29.63-.646.63h-3.229v4.407c0 .348-.29.63-.646.63-.357 0-.646-.282-.646-.63V7.556H7.104c-.357 0-.646-.282-.646-.63V3.778c0-1.391-1.156-2.519-2.583-2.519-1.427 0-2.583 1.128-2.583 2.519V32.11c0 .348.289.63.645.63H18.73c.357 0 .646.282.646.63 0 .347-.29.629-.646.629H1.938C.867 34 0 33.154 0 32.111V3.778C0 1.69 1.735 0 3.875 0zM24.5 32c.276 0 .5.224.5.5v1c0 .276-.224.5-.5.5h-1c-.276 0-.5-.224-.5-.5v-1c0-.276.224-.5.5-.5h1zm4 0c.276 0 .5.224.5.5v1c0 .276-.224.5-.5.5h-1c-.276 0-.5-.224-.5-.5v-1c0-.276.224-.5.5-.5h1zm-4-4c.276 0 .5.224.5.5v1c0 .276-.224.5-.5.5h-1c-.276 0-.5-.224-.5-.5v-1c0-.276.224-.5.5-.5h1zm4 0c.276 0 .5.224.5.5v1c0 .276-.224.5-.5.5h-1c-.276 0-.5-.224-.5-.5v-1c0-.276.224-.5.5-.5h1zm-4-4c.276 0 .5.224.5.5v1c0 .276-.224.5-.5.5h-1c-.276 0-.5-.224-.5-.5v-1c0-.276.224-.5.5-.5h1zm4 0c.276 0 .5.224.5.5v1c0 .276-.224.5-.5.5h-1c-.276 0-.5-.224-.5-.5v-1c0-.276.224-.5.5-.5h1zm-18-12c.387 0 .7.285.7.636v1.91h2.1c.387 0 .7.284.7.636 0 .351-.313.636-.7.636H9.8c-.773 0-1.4.57-1.4 1.273s.627 1.273 1.4 1.273h1.4c1.546 0 2.8 1.14 2.8 2.545 0 1.406-1.254 2.546-2.8 2.546v1.909c0 .351-.313.636-.7.636-.387 0-.7-.285-.7-.636v-1.91H7.7c-.387 0-.7-.284-.7-.636 0-.351.313-.636.7-.636h3.5c.773 0 1.4-.57 1.4-1.273s-.627-1.273-1.4-1.273H9.8c-1.546 0-2.8-1.14-2.8-2.545 0-1.406 1.254-2.546 2.8-2.546v-1.909c0-.351.313-.636.7-.636zm26.286 7.053H22.214v2.526h14.572v-2.526zm-1.822-3.79H24.036c-1.006 0-1.822.848-1.822 1.895v.631h14.572v-.631c0-1.047-.816-1.895-1.822-1.895zM27.125 1.26H6.755c.629.698.981 1.59.995 2.519v2.518h21.958V3.778c0-1.391-1.156-2.519-2.583-2.519z" transform="translate(-535 -2924) translate(0 2785) translate(535 133) translate(0 6)"/>
                    </g>
                </g>
            </g>
        </g>
    </g>
</svg>
