<svg xmlns="http://www.w3.org/2000/svg" width="35" height="35" viewBox="0 0 35 35">
    <g fill="none" fill-rule="evenodd">
        <g fill="#00A0DF" fill-rule="nonzero">
            <g>
                <g>
                    <g>
                        <g>
                            <path d="M31.135 22.677c-.656 0-1.312.219-1.823.51l-2.99-2.99h2.48C32.23 20.198 35 17.428 35 14c0-2.26-1.24-4.302-3.063-5.323-.51-2.552-2.697-4.448-5.395-4.448-.438 0-.948.073-1.386.146C24.646 1.895 22.458 0 19.833 0c-2.698 0-4.958 1.969-5.395 4.594-.657-.292-1.313-.438-2.042-.438-2.406 0-4.448 1.532-5.177 3.646-.365-.073-.657-.073-1.021-.073C2.77 7.73 0 10.5 0 13.927c0 3.427 2.77 6.198 6.198 6.198h2.48l-2.99 2.99c-.584-.292-1.167-.51-1.823-.51C1.75 22.604 0 24.354 0 26.468s1.75 3.864 3.865 3.864c2.114 0 3.864-1.75 3.864-3.864 0-.657-.219-1.313-.51-1.823l4.52-4.521h4.667v7.292c-1.604.51-2.77 1.968-2.77 3.718 0 2.115 1.75 3.865 3.864 3.865 2.115 0 3.865-1.75 3.865-3.865 0-1.75-1.167-3.208-2.771-3.718v-7.292h4.666l4.521 4.52c-.291.584-.51 1.168-.51 1.824 0 2.114 1.75 3.864 3.864 3.864 2.115 0 3.865-1.75 3.865-3.864 0-2.115-1.75-3.792-3.865-3.792z" transform="translate(-765 -1598) translate(0 1024) translate(735 495) translate(30 71) translate(0 8)"/>
                        </g>
                    </g>
                </g>
            </g>
        </g>
    </g>
</svg>
