<svg xmlns="http://www.w3.org/2000/svg" width="36" height="35" viewBox="0 0 36 35">
    <g fill="none" fill-rule="evenodd">
        <g fill="#00A0DF" fill-rule="nonzero">
            <g>
                <g>
                    <g>
                        <g>
                            <path d="M21.79 16.089c1.75-.283 3.783.113 5.645 1.129.283.17.396.62.113.903l-2.37 2.37c-.17.17-.396.17-.622.114-.733-.339-1.75-.395-2.596-.226-2.258.452-3.895 2.427-3.895 4.742 0 2.653 2.145 4.798 4.798 4.798 2.484 0 4.516-1.863 4.798-4.234h-2.088c-.508 0-.734-.62-.396-.96 1.067-1.086 1.844-1.868 2.41-2.436l1.041-1.043c.264-.265.385-.393.445-.472h.056c.339-.339.677-.226.847.057.175.192.59.613 1.084 1.11l.34.34.177.174.356.355c.774.768 1.532 1.514 1.796 1.775l.086.084c.451.452 0 1.073-.452 1.016h-1.355c-.282 4.742-4.29 8.525-9.089 8.525-4.967 0-9.088-4.008-9.088-9.089 0-4.686 3.5-8.524 7.96-9.032zM0 25.742c1.863 1.976 5.871 3.33 10.613 3.33.903 0 1.863-.056 2.766-.169.677 1.694 1.75 3.105 3.105 4.178-1.694.508-3.782.79-5.871.79C4.855 33.871 0 31.669 0 29.129zm0-5.871l.508.508c2.145 1.75 6.097 2.766 10.161 2.766.678 0 1.412-.056 2.146-.113-.34 1.524-.283 3.218.169 4.799-.734.056-1.58.113-2.371.113C4.855 27.944 0 25.798 0 23.258zm21.226-5.927v.96c-3.613.62-6.774 3.16-8.016 6.66 0 .113-.057.17-.057.283-4.572.508-9.597-.452-11.911-2.371C.395 18.798 0 18.065 0 17.218v-3.274c2.315 2.427 7.226 3.104 10.613 3.104 4.177 0 8.58-.96 10.613-3.104zm.056-6.718v4.064c0 1.75-1.75 2.823-3.161 3.444-1.976.847-4.63 1.298-7.508 1.298-5.25 0-10.613-1.58-10.557-4.742V7.226c1.863 1.976 5.871 3.33 10.613 3.33 4.742 0 8.75-1.354 10.613-3.33zM10.612 0c5.759 0 10.614 2.202 10.614 4.742 0 2.597-4.855 4.742-10.613 4.742C4.855 9.484 0 7.339 0 4.742S4.855 0 10.613 0z" transform="translate(-165 -1598) translate(0 1024) translate(135 495) translate(30 71) translate(.435 8)"/>
                        </g>
                    </g>
                </g>
            </g>
        </g>
    </g>
</svg>
