<svg xmlns="http://www.w3.org/2000/svg" width="244" height="59" viewBox="0 0 244 59">
    <defs>
        <linearGradient id="ddtcn44q1a" x1="11.704%" x2="88.296%" y1="79.155%" y2="20.845%">
            <stop offset="41%" stop-color="#FFF"/>
            <stop offset="48%" stop-color="#FFF" stop-opacity=".98"/>
            <stop offset="55%" stop-color="#FFF" stop-opacity=".94"/>
            <stop offset="63%" stop-color="#FFF" stop-opacity=".86"/>
            <stop offset="70%" stop-color="#FFF" stop-opacity=".75"/>
            <stop offset="78%" stop-color="#FFF" stop-opacity=".6"/>
            <stop offset="85%" stop-color="#FFF" stop-opacity=".43"/>
            <stop offset="93%" stop-color="#FFF" stop-opacity=".22"/>
            <stop offset="100%" stop-color="#FFF" stop-opacity="0"/>
        </linearGradient>
        <linearGradient id="svifwwaawb" x1="17.739%" x2="74.549%" y1="38.628%" y2="56.243%">
            <stop offset="41%" stop-color="#00A0DF"/>
            <stop offset="48%" stop-color="#00A0DF" stop-opacity=".98"/>
            <stop offset="56%" stop-color="#00A0DF" stop-opacity=".93"/>
            <stop offset="64%" stop-color="#00A0DF" stop-opacity=".84"/>
            <stop offset="72%" stop-color="#00A0DF" stop-opacity=".71"/>
            <stop offset="81%" stop-color="#00A0DF" stop-opacity=".55"/>
            <stop offset="89%" stop-color="#00A0DF" stop-opacity=".35"/>
            <stop offset="97%" stop-color="#00A0DF" stop-opacity=".11"/>
            <stop offset="100%" stop-color="#00A0DF" stop-opacity="0"/>
        </linearGradient>
    </defs>
    <g fill="none" fill-rule="evenodd">
        <g fill-rule="nonzero">
            <g transform="translate(-50 -32) translate(50 32)">
                <path fill="#FFF" d="M97.001 23.664V18.28c0-.797.045-2.657.045-3.223-.216.54-.659 1.585-1.047 2.426L92.964 24l-3.053-6.517c-.38-.841-.831-1.886-1.039-2.426v8.607H86V9h2.89l3.116 6.641c.38.815.831 1.922 1.021 2.453.199-.55.623-1.62 1.012-2.453L97.046 9H100v14.664h-2.999zM114.758 24l-1.148-3.342h-5.3L107.136 24H104l5.6-15h2.835L118 24h-3.242zm-3.091-8.913c-.292-.906-.583-1.812-.724-2.337-.15.553-.442 1.458-.734 2.337l-.945 2.717h3.348l-.945-2.717zM131.333 23.964l-5.404-8.133c-.372-.545-.716-1.109-1.031-1.69V24H122V9h2.818l5.218 7.907c.355.56.835 1.31 1.022 1.69V9H134v14.964h-2.667zM147.785 24l-1.148-3.342h-5.353L140.136 24H137l5.6-15h2.844L151 24h-3.215zm-3.092-8.913c-.291-.906-.583-1.812-.733-2.337-.141.553-.441 1.458-.733 2.337l-.936 2.717h3.356l-.954-2.717zM161.26 24c-3.744 0-6.26-2.904-6.26-7.493 0-4.387 2.594-7.492 6.363-7.492 2.408-.18 4.632 1.313 5.412 3.632l-2.714 1.14c-.406-1.171-1.518-1.937-2.741-1.886-2.153 0-3.372 1.904-3.372 4.606 0 2.703 1.245 4.65 3.39 4.65 1.962 0 2.636-.938 2.8-2.202h-2.265v-2.72H167v1.913c0 3.738-2.43 5.852-5.74 5.852zM171 24L171 9 180.705 9 180.705 11.98 173.793 11.98 173.793 14.571 177.81 14.571 177.81 17.415 173.793 17.415 173.793 21.038 181 21.038 181 23.973zM190.417 24H186V9h4.632C194.87 9 198 11.01 198 16.5c-.009 5.272-3.773 7.5-7.583 7.5zm.108-12.083h-1.565v9.166h1.457c3.112 0 4.525-1.811 4.525-4.583 0-3.062-1.288-4.583-4.417-4.583zM86 50L86 35 89 35 89 50zM100.919 37.962L100.919 50 98.081 50 98.081 37.962 94 37.962 94 35 105 35 105 37.962zM120.483 49.993c-2.136.098-4.183-.883-5.483-2.625l2.03-1.864c.897 1.086 2.227 1.694 3.615 1.654 1.705 0 2.456-.473 2.456-1.576 0-.927-.478-1.347-3.147-1.96-2.669-.613-4.417-1.47-4.417-4.376 0-2.626 2.26-4.245 5.048-4.245 1.945-.034 3.81.795 5.116 2.276l-2.038 2.03c-.81-.947-1.978-1.489-3.206-1.488-1.509 0-2.02.665-2.02 1.304 0 .875.605 1.2 2.847 1.75 2.243.552 4.716 1.322 4.716 4.473.025 2.783-1.663 4.647-5.517 4.647zM136.5 50c-4.086 0-6.5-3.074-6.5-7.5s2.414-7.5 6.5-7.5 6.5 3.074 6.5 7.5-2.414 7.5-6.5 7.5zm0-12.11c-2.414 0-3.417 2.02-3.417 4.61 0 2.59 1.003 4.61 3.417 4.61 2.414 0 3.426-2.01 3.426-4.61 0-2.6-1.012-4.61-3.426-4.61zM147 50L147 35 149.851 35 149.851 47.047 157 47.047 157 50zM167 50c-3.587 0-6-2.408-6-6.706V35h2.942v8.25c0 2.362 1.148 3.86 3.031 3.86 1.883 0 3.058-1.453 3.058-3.816V35H173v8.25c.027 4.28-2.224 6.75-6 6.75zM182.924 37.962L182.924 50 180.084 50 180.084 37.962 176 37.962 176 35 187 35 187 37.962zM192 50L192 35 195 35 195 50zM205.505 50C201.42 50 199 46.926 199 42.5s2.421-7.5 6.505-7.5c4.083 0 6.495 3.074 6.495 7.5s-2.421 7.5-6.495 7.5zm0-12.11c-2.422 0-3.424 2.02-3.424 4.61 0 2.59 1.002 4.61 3.424 4.61 2.42 0 3.414-2.01 3.414-4.61 0-2.6-1.002-4.61-3.414-4.61zM225.351 49.964l-5.44-8.133c-.358-.55-.842-1.3-1.039-1.68V50H216V35h2.837l5.244 7.907c.357.56.85 1.31 1.038 1.69 0-.552-.045-2.431-.045-3.272V35H228v14.964h-2.649zM238.479 49.994c-2.134.095-4.18-.885-5.479-2.626l2.036-1.864c.896 1.083 2.221 1.692 3.604 1.654 1.705 0 2.463-.473 2.463-1.576 0-.927-.486-1.347-3.144-1.96-2.659-.613-4.414-1.47-4.414-4.376 0-2.626 2.258-4.245 5.036-4.245 1.944-.034 3.807.795 5.112 2.276l-2.028 2.03c-.815-.943-1.984-1.484-3.212-1.488-1.508 0-2.01.665-2.01 1.304 0 .876.604 1.2 2.836 1.75 2.233.552 4.72 1.322 4.72 4.473.026 2.783-1.67 4.648-5.52 4.648z"/>
                <ellipse cx="10.5" cy="49" fill="url(#ddtcn44q1a)" rx="10.5" ry="10"/>
                <path fill="#00AEEF" d="M46 0H70V59H46z"/>
                <path fill="url(#svifwwaawb)" d="M43 26.311l-9.25-14.224C30.473 6.534 25.077 2.482 18.747.823 12.418-.836 5.674.034 0 3.241L35.012 59 43 26.311z"/>
            </g>
        </g>
    </g>
</svg>
