<svg xmlns="http://www.w3.org/2000/svg" width="39" height="35" viewBox="0 0 39 35">
    <g fill="none" fill-rule="evenodd">
        <g fill="#00A0DF" fill-rule="nonzero">
            <g>
                <g>
                    <g>
                        <g>
                            <path d="M2.973 2.496h12.895c.567 0 1.03.463 1.03 1.03v7.877H1.943V3.526c0-.567.463-1.03 1.03-1.03zm28.154.579c.72.263 1.092 1.06.83 1.78-.263.72-1.06 1.092-1.78.83-.721-.262-1.093-1.06-.83-1.78.262-.72 1.06-1.092 1.78-.83zm4.423 4.307c.587.493.664 1.369.17 1.956-.492.588-1.368.665-1.956.172-.588-.494-.664-1.37-.171-1.957s1.37-.664 1.957-.171zm2.683 5.56c.383.664.156 1.513-.508 1.897-.665.384-1.514.156-1.898-.509-.383-.664-.156-1.513.508-1.897.665-.383 1.514-.155 1.898.509zM16.753 35c-.767 0-1.389-.622-1.389-1.389s.622-1.389 1.39-1.389c.767 0 1.388.622 1.388 1.39 0 .766-.621 1.388-1.389 1.388zm-5.629-2.534c-.72-.263-1.093-1.06-.83-1.78.262-.721 1.06-1.093 1.78-.83.72.262 1.092 1.059.83 1.78-.262.72-1.06 1.092-1.78.83zm-4.423-4.307c-.588-.493-.664-1.37-.17-1.957.492-.588 1.368-.664 1.956-.171.587.493.664 1.369.17 1.956-.492.588-1.368.665-1.956.172zm-2.683-5.56c-.383-.665-.156-1.514.508-1.898.664-.383 1.514-.155 1.897.509.384.664.156 1.514-.508 1.897-.664.384-1.514.156-1.897-.508zM19.34.084c.72-.262 1.518.11 1.78.83.262.721-.11 1.518-.83 1.78-.721.263-1.518-.109-1.78-.83-.262-.72.11-1.517.83-1.78zm6.157.457c.767 0 1.388.621 1.388 1.388 0 .767-.621 1.389-1.388 1.389-.768 0-1.39-.622-1.39-1.389S24.73.541 25.499.541zm13.357 32.122l-1.943-5.315H21.957l-1.943 5.315h18.841zm-6.265-1.1l-.259-1.502H26.54l-.26 1.502h6.31zm-9.603-14.405h12.895c.567 0 1.03.463 1.03 1.03v7.877H21.957v-7.877c0-.567.463-1.03 1.03-1.03zm-4.146.843l-1.943-5.315H1.943L0 18h18.84zm-6.265-1.1l-.26-1.502H6.525L6.266 16.9h6.31z" transform="translate(-765 -1338) translate(0 1024) translate(735 235) translate(30 71) translate(0 8)"/>
                        </g>
                    </g>
                </g>
            </g>
        </g>
    </g>
</svg>
