<svg xmlns="http://www.w3.org/2000/svg" width="17" height="35" viewBox="0 0 17 35">
    <g fill="none" fill-rule="evenodd">
        <g fill="#00A0DF" fill-rule="nonzero">
            <g>
                <g>
                    <g>
                        <g>
                            <path d="M13.708 0H2.188C.948 0 0 .948 0 2.188v30.625C0 34.053.948 35 2.188 35h11.52c1.24 0 2.188-.948 2.188-2.188V2.189C15.896.948 14.875 0 13.708 0zm-5.76 30.115c-1.167 0-2.115-.948-2.115-2.115 0-1.167.948-2.115 2.115-2.115 1.167 0 2.114.948 2.114 2.115 0 1.167-.947 2.115-2.114 2.115zm-1.604-8.167c0-.875.729-1.604 1.604-1.604.875 0 1.604.729 1.604 1.604 0 .875-.73 1.604-1.604 1.604-.875 0-1.604-.656-1.604-1.604zm5.614-6.854h-8.02c-.438 0-.73-.292-.73-.73 0-.437.292-.729.73-.729h8.02c.438 0 .73.292.73.73 0 .437-.292.729-.73.729zm1.167-4.01H2.771V8.457h10.281v2.625h.073zm0-4.813H2.771V3.646h10.281V6.27h.073z" transform="translate(-465 -1598) translate(0 1024) translate(435 495) translate(30 71) translate(0 8)"/>
                        </g>
                    </g>
                </g>
            </g>
        </g>
    </g>
</svg>
