<svg xmlns="http://www.w3.org/2000/svg" width="47" height="32" viewBox="0 0 47 32">
    <g fill="none" fill-rule="evenodd">
        <g fill="#00A0DF" fill-rule="nonzero">
            <g>
                <g>
                    <g>
                        <path d="M11.71 5.734c.127.172.324.29.551.31l13.683 1.187c.854.76 4.111 3.696 6.006 5.828 1.988 2.242-1.029 2.885-2.343 1.576-3.004-2.99-3.357-5.025-7.584-4.224-5.424 1.032-9.76 4.907-14.857 7.782l-5.43-4.836 5.521-9.523 4.454 1.9zm25.824 16.102c.043-.031.141-.118.163-.16 2.3-2.634 6.688-7.162 9.097-9.71.27-.283.277-.735.01-1.032L37.09.252c-.338-.318-.822-.358-1.144.012l-4.476 5.14-3.36 1.683c-.073-.064-1.298-1.144-1.317-1.134-.12-.116-.28-.195-.464-.21l-13.464-1.17L7.233 2.17c-.358-.152-.774-.004-.962.32L.1 13.133c-.181.314-.111.71.152.945l5.977 5.324c-.39 2.483 1.596 4.485 4.064 3.891.147 1.713 1.475 3.066 3.281 3.054-.014 2.403 2.202 3.979 4.46 3.179.316 2.159 2.637 3.133 4.524 1.992l4.2-2.525.015-.008.017-.01.01-.006.007-.004.008-.006.008-.004.01-.006.007-.004.01-.007.006-.004.007-.009.017-.01.014-.011 10.64-7.068zm-.964-1.182L25.98 27.687l-4.205 2.53c-1.232.735-2.443-.123-2.222-1.507l4.243-2.551c.856-.511.078-1.817-.785-1.305l-5.025 3.021c-1.545.922-3.12-.15-2.857-1.899l.344-.184 5.026-3.021c.86-.516.077-1.819-.783-1.307l-5.027 3.024c-1.55.92-3.11-.15-2.853-1.899l6.789-3.9c.87-.502.102-1.816-.764-1.316l-6.87 3.947c-1.114.625-3.747 1.377-3.25-1.698 4.055-2.29 9.992-6.723 14.838-7.74 2.75-.573 3.903 1.798 5.944 3.83 2.799 2.787 7.833.016 4.569-3.66-1.318-1.483-2.666-2.82-3.777-3.863l2.977-1.492c.098-.05.183-.118.25-.2l3.995-4.59 8.66 9.526c-2.3 2.431-6.448 6.728-8.626 9.221z" transform="translate(-535 -3087) translate(0 2785) translate(535 293) translate(0 9)"/>
                    </g>
                </g>
            </g>
        </g>
    </g>
</svg>
