<svg xmlns="http://www.w3.org/2000/svg" width="43" height="35" viewBox="0 0 43 35">
    <g fill="none" fill-rule="evenodd">
        <g fill="#00A0DF" fill-rule="nonzero">
            <g>
                <g>
                    <g>
                        <g>
                            <path d="M38.5 4.548c1.451 0 2.561 1.11 2.476 2.56v24.5c0 1.452-1.11 2.562-2.561 2.562H2.56C1.11 34.17 0 33.06 0 31.609v-24.5C0 6.084.598 5.23 1.451 4.804v.427c0 1.024.256 2.134.769 3.073 1.45 2.39 1.28 6.914 1.28 6.914 0 2.05-.427 4.269-1.537 6.573-1.707 3.5.513 9.561 6.403 9.647 6.06.17 8.024-6.744 6.146-9.988-.939-1.622-1.28-3.756-1.28-6.146v-.058c-.004-.51.028-4.266 1.536-7.284.512-1.11.598-2.305.512-3.414zM21.085 27.852h-3.329v3.33h3.33v-3.33zm5.464 0h-3.33v3.33h3.33v-3.33zm5.463 0h-3.33v3.33h3.33v-3.33zm5.549 0h-3.33v3.33h3.33v-3.33zM3.756 7.535C2.134 4.548 4.354-.83 9.476.11c2.39.426 5.378 3.329 3.756 7.17-1.48 3.33-1.613 6.915-1.622 7.812v.213c0 2.39.341 4.78 1.451 6.914.427.683.598 1.452.598 2.305 0 3.244-2.903 5.89-6.232 5.122-3.073-.597-5.122-3.927-3.756-7.085.939-2.305 1.622-4.78 1.622-7.256 0 0 .003-.086.004-.242v-.179c-.004-1.208-.144-4.763-1.54-7.348zm17.33 14.94h-3.33v3.329h3.33v-3.33zm5.463 0h-3.33v3.329h3.33v-3.33zm5.463 0h-3.33v3.329h3.33v-3.33zm5.549 0h-3.33v3.329h3.33v-3.33zm-16.476-5.379h-3.329v3.33h3.33v-3.33zm5.464 0h-3.33v3.33h3.33v-3.33zm5.463 0h-3.33v3.33h3.33v-3.33zm5.549 0h-3.33v3.33h3.33v-3.33zm0-9.56H17.756v7.512h19.805V7.535z" transform="translate(-1065 -1338) translate(0 1024) translate(1035 235) translate(30.659 71) translate(0 8)"/>
                        </g>
                    </g>
                </g>
            </g>
        </g>
    </g>
</svg>
