<svg xmlns="http://www.w3.org/2000/svg" width="50" height="34" viewBox="0 0 50 34">
    <g fill="none" fill-rule="evenodd">
        <g fill="#00A0DF" fill-rule="nonzero">
            <g>
                <g>
                    <g>
                        <path d="M12.097 0c6.634 0 11.977 5.407 11.977 12.121 0 6.655-5.401 12.121-12.036 12.121-.528 0-1.115-.059-1.644-.118.411 3.921 2.583 7.249 5.754 9.21C6.87 30.6-.762 22.043.06 11.883.648 5.229 5.462 0 12.097 0zm25.9 0C44.646 0 50 5.397 50 12.1c0 6.643-5.354 12.1-12.003 12.159-.53 0-1.117-.06-1.647-.119.412 3.915 2.589 7.236 5.766 9.193-9.296-2.728-17.004-11.269-16.121-21.411C26.525 5.219 31.349 0 37.997 0z" transform="translate(-695 -3515) translate(135 3515) translate(170) translate(390)"/>
                    </g>
                </g>
            </g>
        </g>
    </g>
</svg>
