<svg xmlns="http://www.w3.org/2000/svg" width="43" height="44" viewBox="0 0 43 44">
    <g fill="none" fill-rule="evenodd">
        <g fill="#00A0DF" fill-rule="nonzero">
            <g>
                <g>
                    <g>
                        <path d="M26.063.002c-.245.048-.42.266-.416.518v1.96c-.606.188-1.172.43-1.713.728l-1.377-1.376c-.096-.101-.229-.158-.368-.158-.138 0-.271.057-.368.158l-3.185 3.205c-.197.202-.197.527 0 .729l1.36 1.376c-.298.56-.533 1.16-.72 1.78h-1.904c-.283 0-.513.233-.513.519v4.533c0 .286.23.518.513.518h1.904c.186.617.424 1.21.72 1.765l-1.36 1.376c-.197.202-.197.527 0 .728l3.185 3.206c.097.1.23.158.368.158.14 0 .272-.057.368-.158l1.345-1.36c.553.302 1.13.557 1.745.745v1.943c0 .286.229.518.512.518h4.498c.282 0 .512-.232.512-.518v-1.943c.61-.185 1.19-.43 1.744-.729l1.329 1.344c.096.1.23.158.368.158.139 0 .272-.057.368-.158l3.17-3.206c.197-.201.197-.526 0-.728l-1.33-1.376c.298-.556.536-1.148.721-1.765h1.905c.283 0 .512-.232.512-.518V9.441c0-.286-.23-.518-.512-.518h-1.905c-.186-.622-.422-1.22-.72-1.781l1.328-1.376c.198-.202.198-.527 0-.729l-3.169-3.205c-.096-.101-.23-.158-.368-.158-.139 0-.272.057-.368.158l-1.36 1.376c-.541-.297-1.107-.54-1.713-.729V.52c0-.286-.23-.518-.512-.518h-4.498c-.032-.003-.064-.003-.096 0zm.608 1.036h3.473V2.82c0 .237.158.443.385.502.79.202 1.525.522 2.224.94.202.12.46.087.625-.082l1.232-1.246L37.06 5.41l-1.216 1.246c-.167.167-.2.427-.08.632.413.703.74 1.455.944 2.266.052.235.258.403.496.405h1.729v3.497h-1.729c-.234 0-.438.16-.496.389-.204.814-.529 1.559-.944 2.266-.12.204-.087.464.08.631l1.216 1.247-2.449 2.477-1.2-1.214c-.166-.168-.423-.202-.625-.081-.69.414-1.452.733-2.256.939-.227.06-.385.266-.385.502v1.765h-3.473v-1.765c0-.236-.158-.443-.384-.502-.806-.206-1.557-.535-2.257-.955-.202-.121-.459-.088-.624.08l-1.217 1.231-2.449-2.477 1.233-1.247c.166-.167.2-.427.08-.63-.415-.708-.741-1.455-.944-2.267-.059-.23-.263-.39-.497-.389h-1.728V9.959h1.728c.239-.002.444-.17.497-.405.203-.809.531-1.564.944-2.266.12-.205.086-.465-.08-.632L19.74 5.41l2.45-2.477 1.248 1.246c.165.169.422.202.624.081.7-.419 1.431-.736 2.225-.939.226-.059.384-.265.384-.502V1.04zm1.745 6.169c-2.458 0-4.466 2.015-4.466 4.5 0 2.486 2.006 4.517 4.466 4.517 2.46 0 4.45-2.034 4.45-4.517 0-2.483-1.993-4.5-4.45-4.5zm0 1.036c1.907 0 3.425 1.538 3.425 3.464 0 1.927-1.52 3.481-3.425 3.481-1.905 0-3.442-1.556-3.442-3.48 0-1.925 1.534-3.465 3.442-3.465zm-14.55 15.623c-1.517 0-2.966.466-4.241 1.23-.158.096-.253.269-.25.454.004.186.104.356.265.446.16.09.356.086.513-.01 1.14-.682 2.402-1.084 3.713-1.084 2.064 0 3.952.823 5.362 2.153.097.087.223.133.352.13l4.818-.032c.634 0 1.024.198 1.28.469.258.27.378.642.369 1.02-.018.757-.491 1.506-1.649 1.506h-6.85c-.185-.003-.357.095-.45.257-.093.16-.093.36 0 .522.093.161.265.26.45.257h6.85c1.643 0 2.644-1.268 2.673-2.526.015-.629-.195-1.263-.656-1.748-.46-.485-1.156-.794-2.017-.794h-.016l-4.642.033c-1.57-1.404-3.627-2.283-5.874-2.283zm25.178.032c-.602.006-1.222.144-1.793.437l-6.114 3.141c-.171.08-.285.247-.298.437-.012.19.079.371.238.472.159.102.36.107.524.014l6.114-3.125c1.168-.6 2.439-.423 2.993.421.555.846.224 2.02-.864 2.672l-13.093 8.046H12.138L5.255 24.368c-.14-.243-.445-.329-.688-.194L.245 26.683l-.032.032c-.214.156-.276.45-.144.68L8.52 42.21c.067.121.18.21.312.246.132.037.274.018.392-.052l4.306-2.51c.12-.067.207-.18.244-.315.036-.134.017-.277-.052-.397l-.992-1.732h14.165c.097 0 .19-.028.272-.08l13.205-8.112c1.501-.9 2.087-2.754 1.185-4.128-.452-.688-1.146-1.078-1.921-1.198-.194-.03-.392-.034-.592-.033zM4.63 25.323l7.939 13.923-3.426 2.008L1.205 27.33l3.426-2.008z" transform="translate(-935 -2922) translate(0 2785) translate(935.011 133) translate(0 4.185)"/>
                    </g>
                </g>
            </g>
        </g>
    </g>
</svg>
