<svg xmlns="http://www.w3.org/2000/svg" width="35" height="35" viewBox="0 0 35 35">
    <g fill="none" fill-rule="evenodd">
        <g fill="#00A0DF" fill-rule="nonzero">
            <g>
                <g>
                    <g>
                        <g>
                            <path d="M33.542 15.896c.802 0 1.458.656 1.458 1.531v3.5c0 .802-.656 1.458-1.458 1.458h-14.51v6.49h2.551v1.531h9.844v3.063H21.51V35h-8.093v-1.604H3.5v-3.063h9.917v-1.53h2.552v-6.49H1.459C.655 22.313 0 21.655 0 20.854v-3.5c0-.802.656-1.458 1.458-1.458zm-2.625 1.969c-.73 0-1.313.583-1.313 1.312 0 .73.584 1.313 1.313 1.313s1.312-.584 1.312-1.313c0-.73-.583-1.312-1.312-1.312zm2.625-9.917c.802 0 1.458.656 1.458 1.458v3.5c0 .802-.656 1.459-1.458 1.459H1.458C.656 14.365 0 13.708 0 12.906v-3.5c0-.802.656-1.458 1.458-1.458zm-2.625 1.969c-.73 0-1.313.583-1.313 1.312 0 .73.584 1.313 1.313 1.313s1.312-.584 1.312-1.313-.583-1.312-1.312-1.312zM33.542 0C34.344 0 35 .656 35 1.458v3.5c0 .802-.656 1.459-1.458 1.459H1.458C.656 6.417 0 5.76 0 4.958v-3.5C0 .656.656 0 1.458 0zm-2.625 1.896c-.73 0-1.313.583-1.313 1.312 0 .73.584 1.313 1.313 1.313s1.312-.583 1.312-1.313c0-.729-.583-1.312-1.312-1.312z" transform="translate(-165 -1338) translate(0 1024) translate(135 235) translate(30 71) translate(0 8)"/>
                        </g>
                    </g>
                </g>
            </g>
        </g>
    </g>
</svg>
