<svg xmlns="http://www.w3.org/2000/svg" width="42" height="42" viewBox="0 0 42 42">
    <g fill="none" fill-rule="evenodd">
        <g fill="#00A0DF" fill-rule="nonzero">
            <g>
                <g>
                    <g>
                        <path d="M7.52.288c.687-.354 1.495-.383 2.206-.08.71.302 1.25.905 1.472 1.645l2.66 8.882c.21.7.114 1.455-.263 2.082-.376.626-.999 1.064-1.715 1.208-.669.133-1.283.462-1.764.944-.262.262-.262.687 0 .948L26.08 31.882c.266.253.683.253.949 0 .482-.482.811-1.096.945-1.764.143-.717.582-1.34 1.21-1.717.626-.377 1.382-.472 2.083-.262l2.722.816c.412.123.645.557.522.968-.123.412-.557.645-.968.522l-2.723-.816c-.28-.084-.585-.046-.836.105-.252.15-.428.401-.486.69-.193.97-.67 1.86-1.37 2.558-.418.418-.984.652-1.574.652-.59 0-1.157-.234-1.574-.652L9.017 17.018c-.868-.87-.868-2.278 0-3.148.698-.7 1.59-1.177 2.56-1.37.287-.057.537-.233.688-.485.151-.252.19-.555.105-.836l-2.664-8.88c-.089-.294-.302-.534-.585-.656-.282-.122-.604-.114-.879.024-.341.167-.653.39-.922.659L2.932 6.714c-1.285 1.274-1.714 3.179-1.1 4.882.385 1.035.829 2.047 1.329 3.033l.377.694c2.677 4.84 6.068 9.25 10.06 13.08 3.76 3.9 8.061 7.237 12.771 9.912l.01.005c1.298.712 2.644 1.329 4.03 1.847 1.7.612 3.602.185 4.878-1.096l4.388-4.388c.262-.262.48-.565.646-.898.147-.28.16-.611.037-.903-.122-.282-.362-.496-.657-.584l-2.95-.885c-.01-.003-.016-.014-.025-.014-.052-.015-.101-.036-.148-.062-.018-.01-.028-.029-.045-.04-.043-.032-.082-.067-.117-.106-.071-.067-.125-.151-.156-.244-.019-.046-.034-.093-.044-.142-.007-.047-.01-.095-.008-.143 0-.052.004-.104.014-.156l.006-.06c.013-.03.028-.058.045-.085.008-.03.018-.06.031-.088l.194-.328c3.758-6.52 3.035-14.696-1.81-20.455-4.845-5.76-12.775-7.873-19.844-5.288-.404.147-.852-.06-1-.465-.148-.405.06-.852.465-1 7.579-2.768 16.08-.569 21.366 5.526 5.286 6.094 6.26 14.82 2.45 21.93l2.021.607c.736.22 1.337.755 1.641 1.46.305.706.281 1.51-.063 2.196-.243.49-.564.936-.95 1.322l-4.392 4.388c-1.172 1.172-2.76 1.832-4.417 1.834-.717 0-1.428-.126-2.1-.373-1.367-.51-2.697-1.114-3.981-1.805-6.677 1.742-13.777-.188-18.654-5.07C2.353 29.87.432 22.768 2.182 16.093c-.137-.256-.284-.514-.413-.77l-.308-.625c-.402-.837-.766-1.693-1.091-2.563C-.45 9.86.119 7.319 1.831 5.613L6.22 1.226c.38-.38.82-.697 1.3-.938zm-4.178 17.85c-.154.946-.232 1.904-.233 2.863-.012 5.246 2.284 10.231 6.279 13.632 3.994 3.4 9.283 4.872 14.46 4.023-4.135-2.589-7.947-5.661-11.354-9.153-3.491-3.412-6.563-7.227-9.152-11.366zM20.8 12c.442 0 .8.358.8.8v8.176l5.794 1.448c.392.098.649.473.6.873-.049.4-.389.702-.793.703-.065 0-.13-.008-.194-.024l-6.401-1.6c-.356-.09-.606-.41-.606-.776v-8.8c0-.442.358-.8.8-.8zM33 20c.552 0 1 .448 1 1s-.448 1-1 1-1-.448-1-1 .448-1 1-1zm-1.793-5.609c.246-.32.661-.462 1.052-.357.39.105.68.434.732.835.053.401-.14.795-.491.997-.478.276-1.09.112-1.366-.366-.202-.35-.174-.788.073-1.109zM27.08 9.458c.422-.079.828.2.906.623.078.422-.2.828-.623.906-.423.078-.828-.2-.906-.623-.079-.423.2-.828.623-.906zM21 8c.552 0 1 .448 1 1s-.448 1-1 1-1-.448-1-1 .448-1 1-1z" transform="translate(-935 -3082) translate(0 2785) translate(935 293) translate(0 4)"/>
                    </g>
                </g>
            </g>
        </g>
    </g>
</svg>
