<svg xmlns="http://www.w3.org/2000/svg" width="35" height="35" viewBox="0 0 35 35">
    <g fill="none" fill-rule="evenodd">
        <g fill="#00A0DF" fill-rule="nonzero">
            <g>
                <g>
                    <g>
                        <g>
                            <path d="M9.143 1.058c.571-1 1.928-1.357 2.928-.785l18.143 10.5c1 .571 1.357 1.928.786 2.928l-5 8.643c-.571 1-1.929 1.357-2.929.786l-5.285-3.072-1.5 2.572-2.572-1.5-2.428 7.143-6.5 2.643v3.357H0v-9.786h4.786v3.357l4.143-1.714 2.214-6.429-2.429-1.428 1.5-2.572L4.93 12.63c-1-.572-1.358-1.929-.786-2.929zm22.55 14.608l2.598 1.5-3.642 6.309-2.598-1.5 3.642-6.31z" transform="translate(-1065 -1598) translate(0 1024) translate(1035 495) translate(30 71) translate(0 8)"/>
                        </g>
                    </g>
                </g>
            </g>
        </g>
    </g>
</svg>
