<svg xmlns="http://www.w3.org/2000/svg" width="47" height="35" viewBox="0 0 47 35">
    <g fill="none" fill-rule="evenodd">
        <g fill="#00A0DF" fill-rule="nonzero">
            <g>
                <g>
                    <g>
                        <g>
                            <path d="M18.667 29.167l.875 2.916h1.75c.583 0 1.07.39 1.07.973s-.487.972-.973.972H8.556c-.584 0-.973-.39-.973-.972 0-.584.486-.973.973-.973h1.75l.875-2.916h7.486zM44.722 0c1.07 0 1.945.875 1.945 1.944v30.042c0 1.07-.875 1.945-1.945 1.945h-10.11c-1.07 0-1.945-.875-1.945-1.945V1.944C32.667.875 33.542 0 34.61 0zm-8.847 26.347c-.68 0-1.167.584-1.167 1.167 0 .68.584 1.167 1.167 1.167.583 0 1.07-.584 1.167-1.167 0-.68-.486-1.167-1.167-1.167zm3.792 0c-.68 0-1.167.584-1.167 1.167 0 .68.583 1.167 1.167 1.167.583 0 1.07-.584 1.166-1.167 0-.68-.486-1.167-1.166-1.167zm3.791 0c-.68 0-1.166.584-1.166 1.167 0 .68.583 1.167 1.166 1.167.584 0 1.07-.584 1.167-1.167 0-.68-.486-1.167-1.167-1.167zM28 4.083c1.07 0 1.847.875 1.847 1.945v19.93c0 .973-.778 1.848-1.847 1.848H1.847C.875 27.806 0 27.028 0 25.958V5.931c0-.973.778-1.848 1.847-1.848zM14.972 24.306c-.68 0-1.264.583-1.264 1.263 0 .681.584 1.264 1.264 1.264s1.167-.583 1.264-1.264c0-.68-.583-1.263-1.264-1.263zM27.417 6.61H2.527v16.333h24.89V6.611zm12.25 10.306c-1.653 0-3.014 1.36-3.014 3.014 0 1.652 1.36 3.013 3.014 3.013 1.652 0 3.014-1.36 3.014-3.013 0-1.653-1.362-3.014-3.014-3.014zm3.305-6.028h-6.708c-.486 0-.972.389-.972.972s.389.972.972.972h6.708c.584 0 .972-.389.972-.972s-.388-.972-.972-.972zm0-3.792h-6.708c-.486 0-.972.39-.972.972 0 .584.389.973.972.973h6.708c.584 0 .972-.39.972-.973s-.388-.972-.972-.972zm0-3.986h-6.708c-.486 0-.972.389-.972.972 0 .584.389.973.972.973h6.708c.584 0 .972-.39.972-.973s-.388-.972-.972-.972z" transform="translate(-465 -1338) translate(0 1024) translate(435 235) translate(30 71) translate(0 8)"/>
                        </g>
                    </g>
                </g>
            </g>
        </g>
    </g>
</svg>
